<?xml version="1.0" standalone="no"?>
 <!DOCTYPE svg PUBLIC "-//W3C//DTD SVG 1.1//EN" 
 "http://www.w3.org/Graphics/SVG/1.1/DTD/svg11.dtd"> 
<svg
  xmlns:svg="http://www.w3.org/2000/svg"
  xmlns="http://www.w3.org/2000/svg"
  xmlns:xlink="http://www.w3.org/1999/xlink"
  version="1.1"
  width="29.700220cm" height="21.000720cm" viewBox="0 0 116930 82680">
<title>SVG Picture created as display-drl_map.svg date 2022/02/15 02:09:27 </title>
  <desc>Picture generated by PCBNEW </desc>
<g style="fill:#000000; fill-opacity:1.000000;stroke:#000000; stroke-opacity:1.000000;
stroke-linecap:round; stroke-linejoin:round;"
 transform="translate(0 0) scale(1 1)">
</g>
<g style="fill:#000000; fill-opacity:0.0; 
stroke:#000000; stroke-width:0.000000; stroke-opacity:1; 
stroke-linecap:round; stroke-linejoin:round;">
</g>
<g style="fill:#000000; fill-opacity:0.0; 
stroke:#000000; stroke-width:59.055118; stroke-opacity:1; 
stroke-linecap:round; stroke-linejoin:round;">
<path d="M40453 13878
L76476 13878
" />
<path d="M76476 13878
L76476 35729
" />
<path d="M76476 35729
L40453 35729
" />
<path d="M40453 35729
L40453 13878
" />
</g>
<g style="fill:#000000; fill-opacity:0.0; 
stroke:#000000; stroke-width:236.220472; stroke-opacity:1; 
stroke-linecap:round; stroke-linejoin:round;">
</g>
<g style="fill:#000000; fill-opacity:0.0; 
stroke:#000000; stroke-width:47.244094; stroke-opacity:1; 
stroke-linecap:round; stroke-linejoin:round;">
<path d="M47251 21371
L47723 21844
" />
<path d="M47723 21371
L47251 21844
" />
<path d="M47303 28996
L47776 29469
" />
<path d="M47776 28996
L47303 29469
" />
<path d="M49628 22537
L50101 23010
" />
<path d="M50101 22537
L49628 23010
" />
<path d="M50256 23681
L50728 24154
" />
<path d="M50728 23681
L50256 24154
" />
<path d="M51437 24863
L51909 25335
" />
<path d="M51909 24863
L51437 25335
" />
<path d="M54035 32280
L54508 32752
" />
<path d="M54508 32280
L54035 32752
" />
<path d="M56043 19489
L56516 19961
" />
<path d="M56516 19489
L56043 19961
" />
<path d="M58240 32233
L58713 32705
" />
<path d="M58713 32233
L58240 32705
" />
<path d="M72106 28406
L72579 28878
" />
<path d="M72579 28406
L72106 28878
" />
<path d="M73878 22500
L74350 22973
" />
<path d="M74350 22500
L73878 22973
" />
</g>
<g style="fill:#000000; fill-opacity:0.0; 
stroke:#000000; stroke-width:64.960630; stroke-opacity:1; 
stroke-linecap:round; stroke-linejoin:round;">
<circle cx="74055.551575" cy="16979.196850" r="324.803150" /> 
</g>
<g style="fill:#000000; fill-opacity:0.0; 
stroke:#000000; stroke-width:236.220472; stroke-opacity:1; 
stroke-linecap:round; stroke-linejoin:round;">
<path d="M73671 17185
L74439 17185
" />
<path d="M73671 16772
L74439 16772
" />
<path d="M74439.409843 17185.889764 A206.692913 206.692913 0.0 0 0 74439.409843 16772.503937" />
<path d="M73671.693307 16772.503937 A206.692913 206.692913 0.0 0 0 73671.693307 17185.889764" />
</g>
<g style="fill:#000000; fill-opacity:0.0; 
stroke:#000000; stroke-width:64.960630; stroke-opacity:1; 
stroke-linecap:round; stroke-linejoin:round;">
<circle cx="74055.551575" cy="26132.740157" r="324.803150" /> 
</g>
<g style="fill:#000000; fill-opacity:0.0; 
stroke:#000000; stroke-width:236.220472; stroke-opacity:1; 
stroke-linecap:round; stroke-linejoin:round;">
<path d="M73671 26339
L74439 26339
" />
<path d="M73671 25926
L74439 25926
" />
<path d="M74439.409843 26339.433071 A206.692913 206.692913 0.0 0 0 74439.409843 25926.047244" />
<path d="M73671.693307 25926.047244 A206.692913 206.692913 0.0 0 0 73671.693307 26339.433071" />
</g>
<g style="fill:#000000; fill-opacity:0.0; 
stroke:#000000; stroke-width:100.393701; stroke-opacity:1; 
stroke-linecap:round; stroke-linejoin:round;">
<path d="M69567 16654
L69567 17658
" />
<path d="M69065 17156
L70069 17156
" />
</g>
<g style="fill:#000000; fill-opacity:0.0; 
stroke:#000000; stroke-width:236.220472; stroke-opacity:1; 
stroke-linecap:round; stroke-linejoin:round;">
<path d="M69242 17540
L69892 17540
" />
<path d="M69242 16772
L69892 16772
" />
<path d="M69892.165748 17540.220472 A383.858268 383.858268 0.0 0 0 69892.165748 16772.503937" />
<path d="M69242.559449 16772.503937 A383.858268 383.858268 0.0 0 0 69242.559449 17540.220472" />
</g>
<g style="fill:#000000; fill-opacity:0.0; 
stroke:#000000; stroke-width:100.393701; stroke-opacity:1; 
stroke-linecap:round; stroke-linejoin:round;">
<path d="M69567 25453
L69567 26457
" />
<path d="M69065 25955
L70069 25955
" />
</g>
<g style="fill:#000000; fill-opacity:0.0; 
stroke:#000000; stroke-width:236.220472; stroke-opacity:1; 
stroke-linecap:round; stroke-linejoin:round;">
<path d="M69242 26339
L69892 26339
" />
<path d="M69242 25571
L69892 25571
" />
<path d="M69892.165748 26339.433071 A383.858268 383.858268 0.0 0 0 69892.165748 25571.716535" />
<path d="M69242.559449 25571.716535 A383.858268 383.858268 0.0 0 0 69242.559449 26339.433071" />
</g>
<g style="fill:#000000; fill-opacity:0.0; 
stroke:#000000; stroke-width:129.921260; stroke-opacity:1; 
stroke-linecap:round; stroke-linejoin:round;">
<path style="fill:#000000; fill-opacity:0.0; 
stroke:#000000; stroke-width:129.921260; stroke-opacity:1; 
stroke-linecap:round; stroke-linejoin:round;fill:none"
d="M 43274.738976,18235.785827
43274.738976,17317.096063
42356.049213,17317.096063
42356.049213,18235.785827
Z" /> 
<path style="fill:#000000; fill-opacity:0.0; 
stroke:#000000; stroke-width:129.921260; stroke-opacity:1; 
stroke-linecap:round; stroke-linejoin:round;fill:none"
d="M 43274.738976,23668.856693
43274.738976,22750.166929
42356.049213,22750.166929
42356.049213,23668.856693
Z" /> 
<path style="fill:#000000; fill-opacity:0.0; 
stroke:#000000; stroke-width:129.921260; stroke-opacity:1; 
stroke-linecap:round; stroke-linejoin:round;fill:none"
d="M 43274.738976,29101.927559
43274.738976,28183.237795
42356.049213,28183.237795
42356.049213,29101.927559
Z" /> 
</g>
<g style="fill:#000000; fill-opacity:0.0; 
stroke:#000000; stroke-width:82.677165; stroke-opacity:1; 
stroke-linecap:round; stroke-linejoin:round;">
<path style="fill:#000000; fill-opacity:0.0; 
stroke:#000000; stroke-width:82.677165; stroke-opacity:1; 
stroke-linecap:round; stroke-linejoin:round;fill:none"
d="M 56398.071260,32717.385827
56811.457087,32304.000000
56398.071260,31890.614173
55984.685433,32304.000000
Z" /> 
<path style="fill:#000000; fill-opacity:0.0; 
stroke:#000000; stroke-width:82.677165; stroke-opacity:1; 
stroke-linecap:round; stroke-linejoin:round;fill:none"
d="M 56398.071260,34843.370079
56811.457087,34429.984252
56398.071260,34016.598425
55984.685433,34429.984252
Z" /> 
</g>
<g style="fill:#000000; fill-opacity:0.0; 
stroke:#000000; stroke-width:94.488189; stroke-opacity:1; 
stroke-linecap:round; stroke-linejoin:round;">
<path d="M70335 18130
L71279 19075
" />
<path d="M71279 18130
L70335 19075
" />
<circle cx="70807.520079" cy="18603.212598" r="472.440945" /> 
<path d="M70335 24036
L71279 24981
" />
<path d="M71279 24036
L70335 24981
" />
<circle cx="70807.520079" cy="24508.724409" r="472.440945" /> 
</g>
<g style="fill:#000000; fill-opacity:0.0; 
stroke:#000000; stroke-width:236.220472; stroke-opacity:1; 
stroke-linecap:round; stroke-linejoin:round;">
</g>
<g style="fill:#000000; fill-opacity:0.0; 
stroke:#000000; stroke-width:78.740551; stroke-opacity:1; 
stroke-linecap:round; stroke-linejoin:round;">
<text x="41211.063780" y="37018.567323"
textLength="5951.446063" font-size="1049.868898" lengthAdjust="spacingAndGlyphs"
text-anchor="start" opacity="0">Drill Map:</text>
<g class="stroked-text"><desc>Drill Map:</desc>
<path d="M41437 36981
L41437 36193
L41625 36193
L41737 36231
L41812 36306
L41850 36381
L41887 36531
L41887 36643
L41850 36793
L41812 36868
L41737 36943
L41625 36981
L41437 36981
" />
<path d="M42225 36981
L42225 36456
" />
<path d="M42225 36606
L42262 36531
L42300 36493
L42375 36456
L42450 36456
" />
<path d="M42712 36981
L42712 36456
" />
<path d="M42712 36193
L42675 36231
L42712 36268
L42750 36231
L42712 36193
L42712 36268
" />
<path d="M43200 36981
L43125 36943
L43087 36868
L43087 36193
" />
<path d="M43612 36981
L43537 36943
L43500 36868
L43500 36193
" />
<path d="M44512 36981
L44512 36193
L44774 36756
L45037 36193
L45037 36981
" />
<path d="M45749 36981
L45749 36568
L45712 36493
L45637 36456
L45487 36456
L45412 36493
" />
<path d="M45749 36943
L45674 36981
L45487 36981
L45412 36943
L45374 36868
L45374 36793
L45412 36718
L45487 36681
L45674 36681
L45749 36643
" />
<path d="M46124 36456
L46124 37243
" />
<path d="M46124 36493
L46199 36456
L46349 36456
L46424 36493
L46462 36531
L46499 36606
L46499 36831
L46462 36906
L46424 36943
L46349 36981
L46199 36981
L46124 36943
" />
<path d="M46837 36906
L46874 36943
L46837 36981
L46799 36943
L46837 36906
L46837 36981
" />
<path d="M46837 36493
L46874 36531
L46837 36568
L46799 36531
L46837 36493
L46837 36568
" />
</g></g>
<g style="fill:#000000; fill-opacity:0.0; 
stroke:#000000; stroke-width:47.244094; stroke-opacity:1; 
stroke-linecap:round; stroke-linejoin:round;">
<path d="M39951 38042
L40423 38514
" />
<path d="M40423 38042
L39951 38514
" />
</g>
<g style="fill:#000000; fill-opacity:0.0; 
stroke:#000000; stroke-width:236.220472; stroke-opacity:1; 
stroke-linecap:round; stroke-linejoin:round;">
</g>
<g style="fill:#000000; fill-opacity:0.0; 
stroke:#000000; stroke-width:78.740551; stroke-opacity:1; 
stroke-linecap:round; stroke-linejoin:round;">
<text x="41211.063780" y="38672.111811"
textLength="19201.359449" font-size="1049.868898" lengthAdjust="spacingAndGlyphs"
text-anchor="start" opacity="0">0.400mm / 0.0157" (10 holes)</text>
<g class="stroked-text"><desc>0.400mm / 0.0157" (10 holes)</desc>
<path d="M41587 37847
L41662 37847
L41737 37884
L41775 37922
L41812 37997
L41850 38147
L41850 38334
L41812 38484
L41775 38559
L41737 38597
L41662 38634
L41587 38634
L41512 38597
L41475 38559
L41437 38484
L41400 38334
L41400 38147
L41437 37997
L41475 37922
L41512 37884
L41587 37847
" />
<path d="M42187 38559
L42225 38597
L42187 38634
L42150 38597
L42187 38559
L42187 38634
" />
<path d="M42900 38109
L42900 38634
" />
<path d="M42712 37809
L42525 38372
L43012 38372
" />
<path d="M43462 37847
L43537 37847
L43612 37884
L43650 37922
L43687 37997
L43725 38147
L43725 38334
L43687 38484
L43650 38559
L43612 38597
L43537 38634
L43462 38634
L43387 38597
L43350 38559
L43312 38484
L43275 38334
L43275 38147
L43312 37997
L43350 37922
L43387 37884
L43462 37847
" />
<path d="M44212 37847
L44287 37847
L44362 37884
L44400 37922
L44437 37997
L44475 38147
L44475 38334
L44437 38484
L44400 38559
L44362 38597
L44287 38634
L44212 38634
L44137 38597
L44100 38559
L44062 38484
L44025 38334
L44025 38147
L44062 37997
L44100 37922
L44137 37884
L44212 37847
" />
<path d="M44812 38634
L44812 38109
" />
<path d="M44812 38184
L44849 38147
L44924 38109
L45037 38109
L45112 38147
L45149 38222
L45149 38634
" />
<path d="M45149 38222
L45187 38147
L45262 38109
L45374 38109
L45449 38147
L45487 38222
L45487 38634
" />
<path d="M45862 38634
L45862 38109
" />
<path d="M45862 38184
L45899 38147
L45974 38109
L46087 38109
L46162 38147
L46199 38222
L46199 38634
" />
<path d="M46199 38222
L46237 38147
L46312 38109
L46424 38109
L46499 38147
L46537 38222
L46537 38634
" />
<path d="M48074 37809
L47399 38822
" />
<path d="M49086 37847
L49161 37847
L49236 37884
L49274 37922
L49311 37997
L49349 38147
L49349 38334
L49311 38484
L49274 38559
L49236 38597
L49161 38634
L49086 38634
L49011 38597
L48974 38559
L48936 38484
L48899 38334
L48899 38147
L48936 37997
L48974 37922
L49011 37884
L49086 37847
" />
<path d="M49686 38559
L49724 38597
L49686 38634
L49649 38597
L49686 38559
L49686 38634
" />
<path d="M50211 37847
L50286 37847
L50361 37884
L50399 37922
L50436 37997
L50474 38147
L50474 38334
L50436 38484
L50399 38559
L50361 38597
L50286 38634
L50211 38634
L50136 38597
L50099 38559
L50061 38484
L50024 38334
L50024 38147
L50061 37997
L50099 37922
L50136 37884
L50211 37847
" />
<path d="M51224 38634
L50774 38634
" />
<path d="M50999 38634
L50999 37847
L50924 37959
L50849 38034
L50774 38072
" />
<path d="M51936 37847
L51561 37847
L51524 38222
L51561 38184
L51636 38147
L51824 38147
L51899 38184
L51936 38222
L51974 38297
L51974 38484
L51936 38559
L51899 38597
L51824 38634
L51636 38634
L51561 38597
L51524 38559
" />
<path d="M52236 37847
L52761 37847
L52424 38634
" />
<path d="M53023 37847
L53023 37997
" />
<path d="M53323 37847
L53323 37997
" />
<path d="M54486 38934
L54448 38897
L54373 38784
L54336 38709
L54298 38597
L54261 38409
L54261 38259
L54298 38072
L54336 37959
L54373 37884
L54448 37772
L54486 37734
" />
<path d="M55198 38634
L54748 38634
" />
<path d="M54973 38634
L54973 37847
L54898 37959
L54823 38034
L54748 38072
" />
<path d="M55686 37847
L55761 37847
L55836 37884
L55873 37922
L55911 37997
L55948 38147
L55948 38334
L55911 38484
L55873 38559
L55836 38597
L55761 38634
L55686 38634
L55611 38597
L55573 38559
L55536 38484
L55498 38334
L55498 38147
L55536 37997
L55573 37922
L55611 37884
L55686 37847
" />
<path d="M56885 38634
L56885 37847
" />
<path d="M57223 38634
L57223 38222
L57185 38147
L57110 38109
L56998 38109
L56923 38147
L56885 38184
" />
<path d="M57710 38634
L57635 38597
L57598 38559
L57560 38484
L57560 38259
L57598 38184
L57635 38147
L57710 38109
L57823 38109
L57898 38147
L57935 38184
L57973 38259
L57973 38484
L57935 38559
L57898 38597
L57823 38634
L57710 38634
" />
<path d="M58423 38634
L58348 38597
L58310 38522
L58310 37847
" />
<path d="M59023 38597
L58948 38634
L58798 38634
L58723 38597
L58685 38522
L58685 38222
L58723 38147
L58798 38109
L58948 38109
L59023 38147
L59060 38222
L59060 38297
L58685 38372
" />
<path d="M59360 38597
L59435 38634
L59585 38634
L59660 38597
L59698 38522
L59698 38484
L59660 38409
L59585 38372
L59473 38372
L59398 38334
L59360 38259
L59360 38222
L59398 38147
L59473 38109
L59585 38109
L59660 38147
" />
<path d="M59960 38934
L59998 38897
L60073 38784
L60110 38709
L60148 38597
L60185 38409
L60185 38259
L60148 38072
L60110 37959
L60073 37884
L59998 37772
L59960 37734
" />
</g></g>
<g style="fill:#000000; fill-opacity:0.0; 
stroke:#000000; stroke-width:64.960630; stroke-opacity:1; 
stroke-linecap:round; stroke-linejoin:round;">
<circle cx="40098.858661" cy="39317.781496" r="324.803150" /> 
</g>
<g style="fill:#000000; fill-opacity:0.0; 
stroke:#000000; stroke-width:236.220472; stroke-opacity:1; 
stroke-linecap:round; stroke-linejoin:round;">
</g>
<g style="fill:#000000; fill-opacity:0.0; 
stroke:#000000; stroke-width:78.740551; stroke-opacity:1; 
stroke-linecap:round; stroke-linejoin:round;">
<text x="41211.063780" y="39711.481890"
textLength="24825.659055" font-size="1049.868898" lengthAdjust="spacingAndGlyphs"
text-anchor="start" opacity="0">0.550mm / 0.0217" (0 holes + 2 slots)</text>
<g class="stroked-text"><desc>0.550mm / 0.0217" (0 holes + 2 slots)</desc>
<path d="M41587 38886
L41662 38886
L41737 38924
L41775 38961
L41812 39036
L41850 39186
L41850 39374
L41812 39524
L41775 39598
L41737 39636
L41662 39673
L41587 39673
L41512 39636
L41475 39598
L41437 39524
L41400 39374
L41400 39186
L41437 39036
L41475 38961
L41512 38924
L41587 38886
" />
<path d="M42187 39598
L42225 39636
L42187 39673
L42150 39636
L42187 39598
L42187 39673
" />
<path d="M42937 38886
L42562 38886
L42525 39261
L42562 39224
L42637 39186
L42825 39186
L42900 39224
L42937 39261
L42975 39336
L42975 39524
L42937 39598
L42900 39636
L42825 39673
L42637 39673
L42562 39636
L42525 39598
" />
<path d="M43687 38886
L43312 38886
L43275 39261
L43312 39224
L43387 39186
L43575 39186
L43650 39224
L43687 39261
L43725 39336
L43725 39524
L43687 39598
L43650 39636
L43575 39673
L43387 39673
L43312 39636
L43275 39598
" />
<path d="M44212 38886
L44287 38886
L44362 38924
L44400 38961
L44437 39036
L44475 39186
L44475 39374
L44437 39524
L44400 39598
L44362 39636
L44287 39673
L44212 39673
L44137 39636
L44100 39598
L44062 39524
L44025 39374
L44025 39186
L44062 39036
L44100 38961
L44137 38924
L44212 38886
" />
<path d="M44812 39673
L44812 39149
" />
<path d="M44812 39224
L44849 39186
L44924 39149
L45037 39149
L45112 39186
L45149 39261
L45149 39673
" />
<path d="M45149 39261
L45187 39186
L45262 39149
L45374 39149
L45449 39186
L45487 39261
L45487 39673
" />
<path d="M45862 39673
L45862 39149
" />
<path d="M45862 39224
L45899 39186
L45974 39149
L46087 39149
L46162 39186
L46199 39261
L46199 39673
" />
<path d="M46199 39261
L46237 39186
L46312 39149
L46424 39149
L46499 39186
L46537 39261
L46537 39673
" />
<path d="M48074 38849
L47399 39861
" />
<path d="M49086 38886
L49161 38886
L49236 38924
L49274 38961
L49311 39036
L49349 39186
L49349 39374
L49311 39524
L49274 39598
L49236 39636
L49161 39673
L49086 39673
L49011 39636
L48974 39598
L48936 39524
L48899 39374
L48899 39186
L48936 39036
L48974 38961
L49011 38924
L49086 38886
" />
<path d="M49686 39598
L49724 39636
L49686 39673
L49649 39636
L49686 39598
L49686 39673
" />
<path d="M50211 38886
L50286 38886
L50361 38924
L50399 38961
L50436 39036
L50474 39186
L50474 39374
L50436 39524
L50399 39598
L50361 39636
L50286 39673
L50211 39673
L50136 39636
L50099 39598
L50061 39524
L50024 39374
L50024 39186
L50061 39036
L50099 38961
L50136 38924
L50211 38886
" />
<path d="M50774 38961
L50811 38924
L50886 38886
L51074 38886
L51149 38924
L51186 38961
L51224 39036
L51224 39111
L51186 39224
L50736 39673
L51224 39673
" />
<path d="M51974 39673
L51524 39673
" />
<path d="M51749 39673
L51749 38886
L51674 38999
L51599 39074
L51524 39111
" />
<path d="M52236 38886
L52761 38886
L52424 39673
" />
<path d="M53023 38886
L53023 39036
" />
<path d="M53323 38886
L53323 39036
" />
<path d="M54486 39973
L54448 39936
L54373 39823
L54336 39748
L54298 39636
L54261 39449
L54261 39299
L54298 39111
L54336 38999
L54373 38924
L54448 38811
L54486 38774
" />
<path d="M54936 38886
L55011 38886
L55086 38924
L55123 38961
L55161 39036
L55198 39186
L55198 39374
L55161 39524
L55123 39598
L55086 39636
L55011 39673
L54936 39673
L54861 39636
L54823 39598
L54786 39524
L54748 39374
L54748 39186
L54786 39036
L54823 38961
L54861 38924
L54936 38886
" />
<path d="M56136 39673
L56136 38886
" />
<path d="M56473 39673
L56473 39261
L56436 39186
L56361 39149
L56248 39149
L56173 39186
L56136 39224
" />
<path d="M56960 39673
L56885 39636
L56848 39598
L56810 39524
L56810 39299
L56848 39224
L56885 39186
L56960 39149
L57073 39149
L57148 39186
L57185 39224
L57223 39299
L57223 39524
L57185 39598
L57148 39636
L57073 39673
L56960 39673
" />
<path d="M57673 39673
L57598 39636
L57560 39561
L57560 38886
" />
<path d="M58273 39636
L58198 39673
L58048 39673
L57973 39636
L57935 39561
L57935 39261
L57973 39186
L58048 39149
L58198 39149
L58273 39186
L58310 39261
L58310 39336
L57935 39411
" />
<path d="M58610 39636
L58685 39673
L58835 39673
L58910 39636
L58948 39561
L58948 39524
L58910 39449
L58835 39411
L58723 39411
L58648 39374
L58610 39299
L58610 39261
L58648 39186
L58723 39149
L58835 39149
L58910 39186
" />
<path d="M59885 39374
L60485 39374
" />
<path d="M60185 39673
L60185 39074
" />
<path d="M61422 38961
L61460 38924
L61535 38886
L61722 38886
L61797 38924
L61835 38961
L61872 39036
L61872 39111
L61835 39224
L61385 39673
L61872 39673
" />
<path d="M62772 39636
L62847 39673
L62997 39673
L63072 39636
L63110 39561
L63110 39524
L63072 39449
L62997 39411
L62885 39411
L62810 39374
L62772 39299
L62772 39261
L62810 39186
L62885 39149
L62997 39149
L63072 39186
" />
<path d="M63560 39673
L63485 39636
L63447 39561
L63447 38886
" />
<path d="M63972 39673
L63897 39636
L63860 39598
L63822 39524
L63822 39299
L63860 39224
L63897 39186
L63972 39149
L64085 39149
L64160 39186
L64197 39224
L64235 39299
L64235 39524
L64197 39598
L64160 39636
L64085 39673
L63972 39673
" />
<path d="M64460 39149
L64760 39149
" />
<path d="M64572 38886
L64572 39561
L64610 39636
L64685 39673
L64760 39673
" />
<path d="M64984 39636
L65059 39673
L65209 39673
L65284 39636
L65322 39561
L65322 39524
L65284 39449
L65209 39411
L65097 39411
L65022 39374
L64984 39299
L64984 39261
L65022 39186
L65097 39149
L65209 39149
L65284 39186
" />
<path d="M65584 39973
L65622 39936
L65697 39823
L65734 39748
L65772 39636
L65809 39449
L65809 39299
L65772 39111
L65734 38999
L65697 38924
L65622 38811
L65584 38774
" />
</g></g>
<g style="fill:#000000; fill-opacity:0.0; 
stroke:#000000; stroke-width:78.739370; stroke-opacity:1; 
stroke-linecap:round; stroke-linejoin:round;">
<path d="M40029 40046
L40029 40833
" />
<path d="M39636 40439
L40423 40439
" />
</g>
<g style="fill:#000000; fill-opacity:0.0; 
stroke:#000000; stroke-width:236.220472; stroke-opacity:1; 
stroke-linecap:round; stroke-linejoin:round;">
</g>
<g style="fill:#000000; fill-opacity:0.0; 
stroke:#000000; stroke-width:78.740551; stroke-opacity:1; 
stroke-linecap:round; stroke-linejoin:round;">
<text x="41211.063780" y="40833.529134"
textLength="24825.659055" font-size="1049.868898" lengthAdjust="spacingAndGlyphs"
text-anchor="start" opacity="0">0.850mm / 0.0335" (0 holes + 2 slots)</text>
<g class="stroked-text"><desc>0.850mm / 0.0335" (0 holes + 2 slots)</desc>
<path d="M41587 40008
L41662 40008
L41737 40046
L41775 40083
L41812 40158
L41850 40308
L41850 40496
L41812 40646
L41775 40721
L41737 40758
L41662 40796
L41587 40796
L41512 40758
L41475 40721
L41437 40646
L41400 40496
L41400 40308
L41437 40158
L41475 40083
L41512 40046
L41587 40008
" />
<path d="M42187 40721
L42225 40758
L42187 40796
L42150 40758
L42187 40721
L42187 40796
" />
<path d="M42675 40346
L42600 40308
L42562 40271
L42525 40196
L42525 40158
L42562 40083
L42600 40046
L42675 40008
L42825 40008
L42900 40046
L42937 40083
L42975 40158
L42975 40196
L42937 40271
L42900 40308
L42825 40346
L42675 40346
L42600 40383
L42562 40421
L42525 40496
L42525 40646
L42562 40721
L42600 40758
L42675 40796
L42825 40796
L42900 40758
L42937 40721
L42975 40646
L42975 40496
L42937 40421
L42900 40383
L42825 40346
" />
<path d="M43687 40008
L43312 40008
L43275 40383
L43312 40346
L43387 40308
L43575 40308
L43650 40346
L43687 40383
L43725 40458
L43725 40646
L43687 40721
L43650 40758
L43575 40796
L43387 40796
L43312 40758
L43275 40721
" />
<path d="M44212 40008
L44287 40008
L44362 40046
L44400 40083
L44437 40158
L44475 40308
L44475 40496
L44437 40646
L44400 40721
L44362 40758
L44287 40796
L44212 40796
L44137 40758
L44100 40721
L44062 40646
L44025 40496
L44025 40308
L44062 40158
L44100 40083
L44137 40046
L44212 40008
" />
<path d="M44812 40796
L44812 40271
" />
<path d="M44812 40346
L44849 40308
L44924 40271
L45037 40271
L45112 40308
L45149 40383
L45149 40796
" />
<path d="M45149 40383
L45187 40308
L45262 40271
L45374 40271
L45449 40308
L45487 40383
L45487 40796
" />
<path d="M45862 40796
L45862 40271
" />
<path d="M45862 40346
L45899 40308
L45974 40271
L46087 40271
L46162 40308
L46199 40383
L46199 40796
" />
<path d="M46199 40383
L46237 40308
L46312 40271
L46424 40271
L46499 40308
L46537 40383
L46537 40796
" />
<path d="M48074 39971
L47399 40983
" />
<path d="M49086 40008
L49161 40008
L49236 40046
L49274 40083
L49311 40158
L49349 40308
L49349 40496
L49311 40646
L49274 40721
L49236 40758
L49161 40796
L49086 40796
L49011 40758
L48974 40721
L48936 40646
L48899 40496
L48899 40308
L48936 40158
L48974 40083
L49011 40046
L49086 40008
" />
<path d="M49686 40721
L49724 40758
L49686 40796
L49649 40758
L49686 40721
L49686 40796
" />
<path d="M50211 40008
L50286 40008
L50361 40046
L50399 40083
L50436 40158
L50474 40308
L50474 40496
L50436 40646
L50399 40721
L50361 40758
L50286 40796
L50211 40796
L50136 40758
L50099 40721
L50061 40646
L50024 40496
L50024 40308
L50061 40158
L50099 40083
L50136 40046
L50211 40008
" />
<path d="M50736 40008
L51224 40008
L50961 40308
L51074 40308
L51149 40346
L51186 40383
L51224 40458
L51224 40646
L51186 40721
L51149 40758
L51074 40796
L50849 40796
L50774 40758
L50736 40721
" />
<path d="M51486 40008
L51974 40008
L51711 40308
L51824 40308
L51899 40346
L51936 40383
L51974 40458
L51974 40646
L51936 40721
L51899 40758
L51824 40796
L51599 40796
L51524 40758
L51486 40721
" />
<path d="M52686 40008
L52311 40008
L52274 40383
L52311 40346
L52386 40308
L52574 40308
L52649 40346
L52686 40383
L52724 40458
L52724 40646
L52686 40721
L52649 40758
L52574 40796
L52386 40796
L52311 40758
L52274 40721
" />
<path d="M53023 40008
L53023 40158
" />
<path d="M53323 40008
L53323 40158
" />
<path d="M54486 41095
L54448 41058
L54373 40946
L54336 40871
L54298 40758
L54261 40571
L54261 40421
L54298 40233
L54336 40121
L54373 40046
L54448 39933
L54486 39896
" />
<path d="M54936 40008
L55011 40008
L55086 40046
L55123 40083
L55161 40158
L55198 40308
L55198 40496
L55161 40646
L55123 40721
L55086 40758
L55011 40796
L54936 40796
L54861 40758
L54823 40721
L54786 40646
L54748 40496
L54748 40308
L54786 40158
L54823 40083
L54861 40046
L54936 40008
" />
<path d="M56136 40796
L56136 40008
" />
<path d="M56473 40796
L56473 40383
L56436 40308
L56361 40271
L56248 40271
L56173 40308
L56136 40346
" />
<path d="M56960 40796
L56885 40758
L56848 40721
L56810 40646
L56810 40421
L56848 40346
L56885 40308
L56960 40271
L57073 40271
L57148 40308
L57185 40346
L57223 40421
L57223 40646
L57185 40721
L57148 40758
L57073 40796
L56960 40796
" />
<path d="M57673 40796
L57598 40758
L57560 40683
L57560 40008
" />
<path d="M58273 40758
L58198 40796
L58048 40796
L57973 40758
L57935 40683
L57935 40383
L57973 40308
L58048 40271
L58198 40271
L58273 40308
L58310 40383
L58310 40458
L57935 40533
" />
<path d="M58610 40758
L58685 40796
L58835 40796
L58910 40758
L58948 40683
L58948 40646
L58910 40571
L58835 40533
L58723 40533
L58648 40496
L58610 40421
L58610 40383
L58648 40308
L58723 40271
L58835 40271
L58910 40308
" />
<path d="M59885 40496
L60485 40496
" />
<path d="M60185 40796
L60185 40196
" />
<path d="M61422 40083
L61460 40046
L61535 40008
L61722 40008
L61797 40046
L61835 40083
L61872 40158
L61872 40233
L61835 40346
L61385 40796
L61872 40796
" />
<path d="M62772 40758
L62847 40796
L62997 40796
L63072 40758
L63110 40683
L63110 40646
L63072 40571
L62997 40533
L62885 40533
L62810 40496
L62772 40421
L62772 40383
L62810 40308
L62885 40271
L62997 40271
L63072 40308
" />
<path d="M63560 40796
L63485 40758
L63447 40683
L63447 40008
" />
<path d="M63972 40796
L63897 40758
L63860 40721
L63822 40646
L63822 40421
L63860 40346
L63897 40308
L63972 40271
L64085 40271
L64160 40308
L64197 40346
L64235 40421
L64235 40646
L64197 40721
L64160 40758
L64085 40796
L63972 40796
" />
<path d="M64460 40271
L64760 40271
" />
<path d="M64572 40008
L64572 40683
L64610 40758
L64685 40796
L64760 40796
" />
<path d="M64984 40758
L65059 40796
L65209 40796
L65284 40758
L65322 40683
L65322 40646
L65284 40571
L65209 40533
L65097 40533
L65022 40496
L64984 40421
L64984 40383
L65022 40308
L65097 40271
L65209 40271
L65284 40308
" />
<path d="M65584 41095
L65622 41058
L65697 40946
L65734 40871
L65772 40758
L65809 40571
L65809 40421
L65772 40233
L65734 40121
L65697 40046
L65622 39933
L65584 39896
" />
</g></g>
<g style="fill:#000000; fill-opacity:0.0; 
stroke:#000000; stroke-width:78.739370; stroke-opacity:1; 
stroke-linecap:round; stroke-linejoin:round;">
<path style="fill:#000000; fill-opacity:0.0; 
stroke:#000000; stroke-width:78.739370; stroke-opacity:1; 
stroke-linecap:round; stroke-linejoin:round;fill:none"
d="M 40308.351969,41978.062205
40308.351969,41421.281102
39751.570866,41421.281102
39751.570866,41978.062205
Z" /> 
</g>
<g style="fill:#000000; fill-opacity:0.0; 
stroke:#000000; stroke-width:236.220472; stroke-opacity:1; 
stroke-linecap:round; stroke-linejoin:round;">
</g>
<g style="fill:#000000; fill-opacity:0.0; 
stroke:#000000; stroke-width:78.740551; stroke-opacity:1; 
stroke-linecap:round; stroke-linejoin:round;">
<text x="41211.063780" y="42093.372047"
textLength="18451.452756" font-size="1049.868898" lengthAdjust="spacingAndGlyphs"
text-anchor="start" opacity="0">1.100mm / 0.0433" (3 holes)</text>
<g class="stroked-text"><desc>1.100mm / 0.0433" (3 holes)</desc>
<path d="M41850 42055
L41400 42055
" />
<path d="M41625 42055
L41625 41268
L41550 41380
L41475 41455
L41400 41493
" />
<path d="M42187 41980
L42225 42018
L42187 42055
L42150 42018
L42187 41980
L42187 42055
" />
<path d="M42975 42055
L42525 42055
" />
<path d="M42750 42055
L42750 41268
L42675 41380
L42600 41455
L42525 41493
" />
<path d="M43462 41268
L43537 41268
L43612 41305
L43650 41343
L43687 41418
L43725 41568
L43725 41755
L43687 41905
L43650 41980
L43612 42018
L43537 42055
L43462 42055
L43387 42018
L43350 41980
L43312 41905
L43275 41755
L43275 41568
L43312 41418
L43350 41343
L43387 41305
L43462 41268
" />
<path d="M44212 41268
L44287 41268
L44362 41305
L44400 41343
L44437 41418
L44475 41568
L44475 41755
L44437 41905
L44400 41980
L44362 42018
L44287 42055
L44212 42055
L44137 42018
L44100 41980
L44062 41905
L44025 41755
L44025 41568
L44062 41418
L44100 41343
L44137 41305
L44212 41268
" />
<path d="M44812 42055
L44812 41530
" />
<path d="M44812 41605
L44849 41568
L44924 41530
L45037 41530
L45112 41568
L45149 41643
L45149 42055
" />
<path d="M45149 41643
L45187 41568
L45262 41530
L45374 41530
L45449 41568
L45487 41643
L45487 42055
" />
<path d="M45862 42055
L45862 41530
" />
<path d="M45862 41605
L45899 41568
L45974 41530
L46087 41530
L46162 41568
L46199 41643
L46199 42055
" />
<path d="M46199 41643
L46237 41568
L46312 41530
L46424 41530
L46499 41568
L46537 41643
L46537 42055
" />
<path d="M48074 41230
L47399 42243
" />
<path d="M49086 41268
L49161 41268
L49236 41305
L49274 41343
L49311 41418
L49349 41568
L49349 41755
L49311 41905
L49274 41980
L49236 42018
L49161 42055
L49086 42055
L49011 42018
L48974 41980
L48936 41905
L48899 41755
L48899 41568
L48936 41418
L48974 41343
L49011 41305
L49086 41268
" />
<path d="M49686 41980
L49724 42018
L49686 42055
L49649 42018
L49686 41980
L49686 42055
" />
<path d="M50211 41268
L50286 41268
L50361 41305
L50399 41343
L50436 41418
L50474 41568
L50474 41755
L50436 41905
L50399 41980
L50361 42018
L50286 42055
L50211 42055
L50136 42018
L50099 41980
L50061 41905
L50024 41755
L50024 41568
L50061 41418
L50099 41343
L50136 41305
L50211 41268
" />
<path d="M51149 41530
L51149 42055
" />
<path d="M50961 41230
L50774 41793
L51261 41793
" />
<path d="M51486 41268
L51974 41268
L51711 41568
L51824 41568
L51899 41605
L51936 41643
L51974 41718
L51974 41905
L51936 41980
L51899 42018
L51824 42055
L51599 42055
L51524 42018
L51486 41980
" />
<path d="M52236 41268
L52724 41268
L52461 41568
L52574 41568
L52649 41605
L52686 41643
L52724 41718
L52724 41905
L52686 41980
L52649 42018
L52574 42055
L52349 42055
L52274 42018
L52236 41980
" />
<path d="M53023 41268
L53023 41418
" />
<path d="M53323 41268
L53323 41418
" />
<path d="M54486 42355
L54448 42318
L54373 42205
L54336 42130
L54298 42018
L54261 41830
L54261 41680
L54298 41493
L54336 41380
L54373 41305
L54448 41193
L54486 41155
" />
<path d="M54711 41268
L55198 41268
L54936 41568
L55048 41568
L55123 41605
L55161 41643
L55198 41718
L55198 41905
L55161 41980
L55123 42018
L55048 42055
L54823 42055
L54748 42018
L54711 41980
" />
<path d="M56136 42055
L56136 41268
" />
<path d="M56473 42055
L56473 41643
L56436 41568
L56361 41530
L56248 41530
L56173 41568
L56136 41605
" />
<path d="M56960 42055
L56885 42018
L56848 41980
L56810 41905
L56810 41680
L56848 41605
L56885 41568
L56960 41530
L57073 41530
L57148 41568
L57185 41605
L57223 41680
L57223 41905
L57185 41980
L57148 42018
L57073 42055
L56960 42055
" />
<path d="M57673 42055
L57598 42018
L57560 41943
L57560 41268
" />
<path d="M58273 42018
L58198 42055
L58048 42055
L57973 42018
L57935 41943
L57935 41643
L57973 41568
L58048 41530
L58198 41530
L58273 41568
L58310 41643
L58310 41718
L57935 41793
" />
<path d="M58610 42018
L58685 42055
L58835 42055
L58910 42018
L58948 41943
L58948 41905
L58910 41830
L58835 41793
L58723 41793
L58648 41755
L58610 41680
L58610 41643
L58648 41568
L58723 41530
L58835 41530
L58910 41568
" />
<path d="M59210 42355
L59248 42318
L59323 42205
L59360 42130
L59398 42018
L59435 41830
L59435 41680
L59398 41493
L59360 41380
L59323 41305
L59248 41193
L59210 41155
" />
</g></g>
<g style="fill:#000000; fill-opacity:0.0; 
stroke:#000000; stroke-width:78.739370; stroke-opacity:1; 
stroke-linecap:round; stroke-linejoin:round;">
<path style="fill:#000000; fill-opacity:0.0; 
stroke:#000000; stroke-width:78.739370; stroke-opacity:1; 
stroke-linecap:round; stroke-linejoin:round;fill:none"
d="M 40029.961417,43353.214961
40423.661811,42959.514567
40029.961417,42565.814173
39636.261024,42959.514567
Z" /> 
</g>
<g style="fill:#000000; fill-opacity:0.0; 
stroke:#000000; stroke-width:236.220472; stroke-opacity:1; 
stroke-linecap:round; stroke-linejoin:round;">
</g>
<g style="fill:#000000; fill-opacity:0.0; 
stroke:#000000; stroke-width:78.740551; stroke-opacity:1; 
stroke-linecap:round; stroke-linejoin:round;">
<text x="41211.063780" y="43353.214961"
textLength="26250.481890" font-size="1049.868898" lengthAdjust="spacingAndGlyphs"
text-anchor="start" opacity="0">0.700mm / 0.0276" (2 holes) (not plated)</text>
<g class="stroked-text"><desc>0.700mm / 0.0276" (2 holes) (not plated)</desc>
<path d="M41587 42528
L41662 42528
L41737 42565
L41775 42603
L41812 42678
L41850 42828
L41850 43015
L41812 43165
L41775 43240
L41737 43278
L41662 43315
L41587 43315
L41512 43278
L41475 43240
L41437 43165
L41400 43015
L41400 42828
L41437 42678
L41475 42603
L41512 42565
L41587 42528
" />
<path d="M42187 43240
L42225 43278
L42187 43315
L42150 43278
L42187 43240
L42187 43315
" />
<path d="M42487 42528
L43012 42528
L42675 43315
" />
<path d="M43462 42528
L43537 42528
L43612 42565
L43650 42603
L43687 42678
L43725 42828
L43725 43015
L43687 43165
L43650 43240
L43612 43278
L43537 43315
L43462 43315
L43387 43278
L43350 43240
L43312 43165
L43275 43015
L43275 42828
L43312 42678
L43350 42603
L43387 42565
L43462 42528
" />
<path d="M44212 42528
L44287 42528
L44362 42565
L44400 42603
L44437 42678
L44475 42828
L44475 43015
L44437 43165
L44400 43240
L44362 43278
L44287 43315
L44212 43315
L44137 43278
L44100 43240
L44062 43165
L44025 43015
L44025 42828
L44062 42678
L44100 42603
L44137 42565
L44212 42528
" />
<path d="M44812 43315
L44812 42790
" />
<path d="M44812 42865
L44849 42828
L44924 42790
L45037 42790
L45112 42828
L45149 42903
L45149 43315
" />
<path d="M45149 42903
L45187 42828
L45262 42790
L45374 42790
L45449 42828
L45487 42903
L45487 43315
" />
<path d="M45862 43315
L45862 42790
" />
<path d="M45862 42865
L45899 42828
L45974 42790
L46087 42790
L46162 42828
L46199 42903
L46199 43315
" />
<path d="M46199 42903
L46237 42828
L46312 42790
L46424 42790
L46499 42828
L46537 42903
L46537 43315
" />
<path d="M48074 42490
L47399 43503
" />
<path d="M49086 42528
L49161 42528
L49236 42565
L49274 42603
L49311 42678
L49349 42828
L49349 43015
L49311 43165
L49274 43240
L49236 43278
L49161 43315
L49086 43315
L49011 43278
L48974 43240
L48936 43165
L48899 43015
L48899 42828
L48936 42678
L48974 42603
L49011 42565
L49086 42528
" />
<path d="M49686 43240
L49724 43278
L49686 43315
L49649 43278
L49686 43240
L49686 43315
" />
<path d="M50211 42528
L50286 42528
L50361 42565
L50399 42603
L50436 42678
L50474 42828
L50474 43015
L50436 43165
L50399 43240
L50361 43278
L50286 43315
L50211 43315
L50136 43278
L50099 43240
L50061 43165
L50024 43015
L50024 42828
L50061 42678
L50099 42603
L50136 42565
L50211 42528
" />
<path d="M50774 42603
L50811 42565
L50886 42528
L51074 42528
L51149 42565
L51186 42603
L51224 42678
L51224 42753
L51186 42865
L50736 43315
L51224 43315
" />
<path d="M51486 42528
L52011 42528
L51674 43315
" />
<path d="M52649 42528
L52499 42528
L52424 42565
L52386 42603
L52311 42715
L52274 42865
L52274 43165
L52311 43240
L52349 43278
L52424 43315
L52574 43315
L52649 43278
L52686 43240
L52724 43165
L52724 42978
L52686 42903
L52649 42865
L52574 42828
L52424 42828
L52349 42865
L52311 42903
L52274 42978
" />
<path d="M53023 42528
L53023 42678
" />
<path d="M53323 42528
L53323 42678
" />
<path d="M54486 43615
L54448 43578
L54373 43465
L54336 43390
L54298 43278
L54261 43090
L54261 42940
L54298 42753
L54336 42640
L54373 42565
L54448 42453
L54486 42415
" />
<path d="M54748 42603
L54786 42565
L54861 42528
L55048 42528
L55123 42565
L55161 42603
L55198 42678
L55198 42753
L55161 42865
L54711 43315
L55198 43315
" />
<path d="M56136 43315
L56136 42528
" />
<path d="M56473 43315
L56473 42903
L56436 42828
L56361 42790
L56248 42790
L56173 42828
L56136 42865
" />
<path d="M56960 43315
L56885 43278
L56848 43240
L56810 43165
L56810 42940
L56848 42865
L56885 42828
L56960 42790
L57073 42790
L57148 42828
L57185 42865
L57223 42940
L57223 43165
L57185 43240
L57148 43278
L57073 43315
L56960 43315
" />
<path d="M57673 43315
L57598 43278
L57560 43203
L57560 42528
" />
<path d="M58273 43278
L58198 43315
L58048 43315
L57973 43278
L57935 43203
L57935 42903
L57973 42828
L58048 42790
L58198 42790
L58273 42828
L58310 42903
L58310 42978
L57935 43053
" />
<path d="M58610 43278
L58685 43315
L58835 43315
L58910 43278
L58948 43203
L58948 43165
L58910 43090
L58835 43053
L58723 43053
L58648 43015
L58610 42940
L58610 42903
L58648 42828
L58723 42790
L58835 42790
L58910 42828
" />
<path d="M59210 43615
L59248 43578
L59323 43465
L59360 43390
L59398 43278
L59435 43090
L59435 42940
L59398 42753
L59360 42640
L59323 42565
L59248 42453
L59210 42415
" />
<path d="M60635 43615
L60598 43578
L60523 43465
L60485 43390
L60448 43278
L60410 43090
L60410 42940
L60448 42753
L60485 42640
L60523 42565
L60598 42453
L60635 42415
" />
<path d="M60935 42790
L60935 43315
" />
<path d="M60935 42865
L60972 42828
L61047 42790
L61160 42790
L61235 42828
L61272 42903
L61272 43315
" />
<path d="M61760 43315
L61685 43278
L61647 43240
L61610 43165
L61610 42940
L61647 42865
L61685 42828
L61760 42790
L61872 42790
L61947 42828
L61985 42865
L62022 42940
L62022 43165
L61985 43240
L61947 43278
L61872 43315
L61760 43315
" />
<path d="M62247 42790
L62547 42790
" />
<path d="M62360 42528
L62360 43203
L62397 43278
L62472 43315
L62547 43315
" />
<path d="M63410 42790
L63410 43578
" />
<path d="M63410 42828
L63485 42790
L63635 42790
L63710 42828
L63747 42865
L63785 42940
L63785 43165
L63747 43240
L63710 43278
L63635 43315
L63485 43315
L63410 43278
" />
<path d="M64235 43315
L64160 43278
L64122 43203
L64122 42528
" />
<path d="M64872 43315
L64872 42903
L64834 42828
L64760 42790
L64610 42790
L64535 42828
" />
<path d="M64872 43278
L64797 43315
L64610 43315
L64535 43278
L64497 43203
L64497 43128
L64535 43053
L64610 43015
L64797 43015
L64872 42978
" />
<path d="M65134 42790
L65434 42790
" />
<path d="M65247 42528
L65247 43203
L65284 43278
L65359 43315
L65434 43315
" />
<path d="M65997 43278
L65922 43315
L65772 43315
L65697 43278
L65659 43203
L65659 42903
L65697 42828
L65772 42790
L65922 42790
L65997 42828
L66034 42903
L66034 42978
L65659 43053
" />
<path d="M66709 43315
L66709 42528
" />
<path d="M66709 43278
L66634 43315
L66484 43315
L66409 43278
L66372 43240
L66334 43165
L66334 42940
L66372 42865
L66409 42828
L66484 42790
L66634 42790
L66709 42828
" />
<path d="M67009 43615
L67047 43578
L67122 43465
L67159 43390
L67197 43278
L67234 43090
L67234 42940
L67197 42753
L67159 42640
L67122 42565
L67047 42453
L67009 42415
" />
</g></g>
<g style="fill:#000000; fill-opacity:0.0; 
stroke:#000000; stroke-width:78.739370; stroke-opacity:1; 
stroke-linecap:round; stroke-linejoin:round;">
<path d="M39636 43825
L40423 44613
" />
<path d="M40423 43825
L39636 44613
" />
<circle cx="40029.961417" cy="44219.357480" r="393.700394" /> 
</g>
<g style="fill:#000000; fill-opacity:0.0; 
stroke:#000000; stroke-width:236.220472; stroke-opacity:1; 
stroke-linecap:round; stroke-linejoin:round;">
</g>
<g style="fill:#000000; fill-opacity:0.0; 
stroke:#000000; stroke-width:78.740551; stroke-opacity:1; 
stroke-linecap:round; stroke-linejoin:round;">
<text x="41211.063780" y="44613.057874"
textLength="26250.481890" font-size="1049.868898" lengthAdjust="spacingAndGlyphs"
text-anchor="start" opacity="0">0.800mm / 0.0315" (2 holes) (not plated)</text>
<g class="stroked-text"><desc>0.800mm / 0.0315" (2 holes) (not plated)</desc>
<path d="M41587 43788
L41662 43788
L41737 43825
L41775 43863
L41812 43938
L41850 44088
L41850 44275
L41812 44425
L41775 44500
L41737 44538
L41662 44575
L41587 44575
L41512 44538
L41475 44500
L41437 44425
L41400 44275
L41400 44088
L41437 43938
L41475 43863
L41512 43825
L41587 43788
" />
<path d="M42187 44500
L42225 44538
L42187 44575
L42150 44538
L42187 44500
L42187 44575
" />
<path d="M42675 44125
L42600 44088
L42562 44050
L42525 43975
L42525 43938
L42562 43863
L42600 43825
L42675 43788
L42825 43788
L42900 43825
L42937 43863
L42975 43938
L42975 43975
L42937 44050
L42900 44088
L42825 44125
L42675 44125
L42600 44163
L42562 44200
L42525 44275
L42525 44425
L42562 44500
L42600 44538
L42675 44575
L42825 44575
L42900 44538
L42937 44500
L42975 44425
L42975 44275
L42937 44200
L42900 44163
L42825 44125
" />
<path d="M43462 43788
L43537 43788
L43612 43825
L43650 43863
L43687 43938
L43725 44088
L43725 44275
L43687 44425
L43650 44500
L43612 44538
L43537 44575
L43462 44575
L43387 44538
L43350 44500
L43312 44425
L43275 44275
L43275 44088
L43312 43938
L43350 43863
L43387 43825
L43462 43788
" />
<path d="M44212 43788
L44287 43788
L44362 43825
L44400 43863
L44437 43938
L44475 44088
L44475 44275
L44437 44425
L44400 44500
L44362 44538
L44287 44575
L44212 44575
L44137 44538
L44100 44500
L44062 44425
L44025 44275
L44025 44088
L44062 43938
L44100 43863
L44137 43825
L44212 43788
" />
<path d="M44812 44575
L44812 44050
" />
<path d="M44812 44125
L44849 44088
L44924 44050
L45037 44050
L45112 44088
L45149 44163
L45149 44575
" />
<path d="M45149 44163
L45187 44088
L45262 44050
L45374 44050
L45449 44088
L45487 44163
L45487 44575
" />
<path d="M45862 44575
L45862 44050
" />
<path d="M45862 44125
L45899 44088
L45974 44050
L46087 44050
L46162 44088
L46199 44163
L46199 44575
" />
<path d="M46199 44163
L46237 44088
L46312 44050
L46424 44050
L46499 44088
L46537 44163
L46537 44575
" />
<path d="M48074 43750
L47399 44763
" />
<path d="M49086 43788
L49161 43788
L49236 43825
L49274 43863
L49311 43938
L49349 44088
L49349 44275
L49311 44425
L49274 44500
L49236 44538
L49161 44575
L49086 44575
L49011 44538
L48974 44500
L48936 44425
L48899 44275
L48899 44088
L48936 43938
L48974 43863
L49011 43825
L49086 43788
" />
<path d="M49686 44500
L49724 44538
L49686 44575
L49649 44538
L49686 44500
L49686 44575
" />
<path d="M50211 43788
L50286 43788
L50361 43825
L50399 43863
L50436 43938
L50474 44088
L50474 44275
L50436 44425
L50399 44500
L50361 44538
L50286 44575
L50211 44575
L50136 44538
L50099 44500
L50061 44425
L50024 44275
L50024 44088
L50061 43938
L50099 43863
L50136 43825
L50211 43788
" />
<path d="M50736 43788
L51224 43788
L50961 44088
L51074 44088
L51149 44125
L51186 44163
L51224 44238
L51224 44425
L51186 44500
L51149 44538
L51074 44575
L50849 44575
L50774 44538
L50736 44500
" />
<path d="M51974 44575
L51524 44575
" />
<path d="M51749 44575
L51749 43788
L51674 43900
L51599 43975
L51524 44013
" />
<path d="M52686 43788
L52311 43788
L52274 44163
L52311 44125
L52386 44088
L52574 44088
L52649 44125
L52686 44163
L52724 44238
L52724 44425
L52686 44500
L52649 44538
L52574 44575
L52386 44575
L52311 44538
L52274 44500
" />
<path d="M53023 43788
L53023 43938
" />
<path d="M53323 43788
L53323 43938
" />
<path d="M54486 44875
L54448 44838
L54373 44725
L54336 44650
L54298 44538
L54261 44350
L54261 44200
L54298 44013
L54336 43900
L54373 43825
L54448 43713
L54486 43675
" />
<path d="M54748 43863
L54786 43825
L54861 43788
L55048 43788
L55123 43825
L55161 43863
L55198 43938
L55198 44013
L55161 44125
L54711 44575
L55198 44575
" />
<path d="M56136 44575
L56136 43788
" />
<path d="M56473 44575
L56473 44163
L56436 44088
L56361 44050
L56248 44050
L56173 44088
L56136 44125
" />
<path d="M56960 44575
L56885 44538
L56848 44500
L56810 44425
L56810 44200
L56848 44125
L56885 44088
L56960 44050
L57073 44050
L57148 44088
L57185 44125
L57223 44200
L57223 44425
L57185 44500
L57148 44538
L57073 44575
L56960 44575
" />
<path d="M57673 44575
L57598 44538
L57560 44463
L57560 43788
" />
<path d="M58273 44538
L58198 44575
L58048 44575
L57973 44538
L57935 44463
L57935 44163
L57973 44088
L58048 44050
L58198 44050
L58273 44088
L58310 44163
L58310 44238
L57935 44313
" />
<path d="M58610 44538
L58685 44575
L58835 44575
L58910 44538
L58948 44463
L58948 44425
L58910 44350
L58835 44313
L58723 44313
L58648 44275
L58610 44200
L58610 44163
L58648 44088
L58723 44050
L58835 44050
L58910 44088
" />
<path d="M59210 44875
L59248 44838
L59323 44725
L59360 44650
L59398 44538
L59435 44350
L59435 44200
L59398 44013
L59360 43900
L59323 43825
L59248 43713
L59210 43675
" />
<path d="M60635 44875
L60598 44838
L60523 44725
L60485 44650
L60448 44538
L60410 44350
L60410 44200
L60448 44013
L60485 43900
L60523 43825
L60598 43713
L60635 43675
" />
<path d="M60935 44050
L60935 44575
" />
<path d="M60935 44125
L60972 44088
L61047 44050
L61160 44050
L61235 44088
L61272 44163
L61272 44575
" />
<path d="M61760 44575
L61685 44538
L61647 44500
L61610 44425
L61610 44200
L61647 44125
L61685 44088
L61760 44050
L61872 44050
L61947 44088
L61985 44125
L62022 44200
L62022 44425
L61985 44500
L61947 44538
L61872 44575
L61760 44575
" />
<path d="M62247 44050
L62547 44050
" />
<path d="M62360 43788
L62360 44463
L62397 44538
L62472 44575
L62547 44575
" />
<path d="M63410 44050
L63410 44838
" />
<path d="M63410 44088
L63485 44050
L63635 44050
L63710 44088
L63747 44125
L63785 44200
L63785 44425
L63747 44500
L63710 44538
L63635 44575
L63485 44575
L63410 44538
" />
<path d="M64235 44575
L64160 44538
L64122 44463
L64122 43788
" />
<path d="M64872 44575
L64872 44163
L64834 44088
L64760 44050
L64610 44050
L64535 44088
" />
<path d="M64872 44538
L64797 44575
L64610 44575
L64535 44538
L64497 44463
L64497 44388
L64535 44313
L64610 44275
L64797 44275
L64872 44238
" />
<path d="M65134 44050
L65434 44050
" />
<path d="M65247 43788
L65247 44463
L65284 44538
L65359 44575
L65434 44575
" />
<path d="M65997 44538
L65922 44575
L65772 44575
L65697 44538
L65659 44463
L65659 44163
L65697 44088
L65772 44050
L65922 44050
L65997 44088
L66034 44163
L66034 44238
L65659 44313
" />
<path d="M66709 44575
L66709 43788
" />
<path d="M66709 44538
L66634 44575
L66484 44575
L66409 44538
L66372 44500
L66334 44425
L66334 44200
L66372 44125
L66409 44088
L66484 44050
L66634 44050
L66709 44088
" />
<path d="M67009 44875
L67047 44838
L67122 44725
L67159 44650
L67197 44538
L67234 44350
L67234 44200
L67197 44013
L67159 43900
L67122 43825
L67047 43713
L67009 43675
" />
</g></g> 
</svg>
